<?xml version="1.0" encoding="UTF-8" standalone="no"?>
<!DOCTYPE svg PUBLIC "-//W3C//DTD SVG 1.1//EN" "http://www.w3.org/Graphics/SVG/1.1/DTD/svg11.dtd">
<!-- Generated by Microsoft Visio, SVG Export icon.svg Page-1 -->
<svg xmlns="http://www.w3.org/2000/svg" xmlns:xlink="http://www.w3.org/1999/xlink" xmlns:ev="http://www.w3.org/2001/xml-events"
		width="5.95324in" height="6.98646in" viewBox="0 0 428.634 503.025" xml:space="preserve" color-interpolation-filters="sRGB"
		class="st6">
	<style type="text/css">
	<![CDATA[
		.st1 {fill:none;stroke:#d97c29;stroke-linecap:round;stroke-linejoin:round;stroke-width:56}
		.st2 {stroke:#d97c29;stroke-linecap:round;stroke-linejoin:round;stroke-width:56}
		.st3 {stroke:#d97c29;stroke-linecap:round;stroke-linejoin:round;stroke-width:60}
		.st4 {stroke:#d97c29;stroke-linecap:round;stroke-linejoin:round;stroke-width:64}
		.st5 {fill:#d97c29;stroke:none;stroke-linecap:round;stroke-linejoin:round;stroke-width:0.24}
		.st6 {fill:none;fill-rule:evenodd;font-size:12px;overflow:visible;stroke-linecap:square;stroke-miterlimit:3}
	]]>
	</style>

	<g>
		<title>Page-1</title>
		<g id="group15-1" transform="translate(28,-28)">
			<title>Sheet.15</title>
			<g id="shape2-2" transform="translate(107.594,5.68434E-14)">
				<title>Ellipse</title>
				<path d="M0 407.04 A122.598 95.9843 0 1 1 245.2 407.04 A122.598 95.9843 0 1 1 0 407.04 Z" class="st1"/>
			</g>
			<g id="shape4-4" transform="translate(404.866,-12.5266) rotate(53.5969)">
				<title>Sheet.4</title>
				<path d="M0 503.03 L200.12 503.03" class="st2"/>
			</g>
			<g id="shape5-7" transform="translate(598.835,19.4509) rotate(80.0723)">
				<title>Sheet.5</title>
				<path d="M0 503.03 L156.2 503.03" class="st3"/>
			</g>
			<g id="shape6-10" transform="translate(712.667,60) rotate(90)">
				<title>Sheet.6</title>
				<path d="M0 503.03 L175.75 503.03" class="st4"/>
			</g>
			<g id="shape7-13" transform="translate(802.727,146.047) rotate(95.1944)">
				<title>Sheet.7</title>
				<path d="M0 503.03 L147.16 503.03" class="st3"/>
			</g>
			<g id="shape8-16" transform="translate(872.047,226.47) rotate(96.87)">
				<title>Sheet.8</title>
				<path d="M0 503.03 L118.49 503.03" class="st2"/>
			</g>
			<g id="shape9-19" transform="translate(164.996,-56.6929)">
				<title>Circle</title>
				<path d="M0 445.98 A57.0472 57.0472 0 0 1 114.09 445.98 A57.0472 57.0472 0 0 1 -0 445.98 Z" class="st5"/>
			</g>
			<g id="shape14-21" transform="translate(395.691,-31.0178) rotate(51.1155)">
				<title>Sheet.14</title>
				<path d="M0 503.03 L112.89 503.03" class="st2"/>
			</g>
		</g>
	</g>
</svg>
