<?xml version="1.0" encoding="UTF-8" standalone="no"?>
<!DOCTYPE svg PUBLIC "-//W3C//DTD SVG 1.1//EN" "http://www.w3.org/Graphics/SVG/1.1/DTD/svg11.dtd">
<!-- Generated by Microsoft Visio, SVG Export github_logo.svg Page-1 -->
<svg xmlns="http://www.w3.org/2000/svg" xmlns:xlink="http://www.w3.org/1999/xlink" xmlns:ev="http://www.w3.org/2001/xml-events"
		width="42.7743in" height="10in" viewBox="0 0 3079.75 720" xml:space="preserve" color-interpolation-filters="sRGB"
		class="st8">
	<style type="text/css">
	<![CDATA[
		.st1 {fill:none;stroke:#d97c29;stroke-linecap:round;stroke-linejoin:round;stroke-width:56}
		.st2 {stroke:#d97c29;stroke-linecap:round;stroke-linejoin:round;stroke-width:56}
		.st3 {stroke:#d97c29;stroke-linecap:round;stroke-linejoin:round;stroke-width:60}
		.st4 {stroke:#d97c29;stroke-linecap:round;stroke-linejoin:round;stroke-width:64}
		.st5 {fill:#d97c29;stroke:none;stroke-linecap:round;stroke-linejoin:round;stroke-width:0.24}
		.st6 {fill:none;stroke:none;stroke-linecap:round;stroke-linejoin:round;stroke-width:0.75}
		.st7 {fill:#000000;font-family:Roboto Black;font-size:50em}
		.st8 {fill:none;fill-rule:evenodd;font-size:12px;overflow:visible;stroke-linecap:square;stroke-miterlimit:3}
	]]>
	</style>

	<g>
		<title>Page-1</title>
		<g id="group12-1" transform="translate(28,-109.134)">
			<title>Sheet.12</title>
			<g id="group1-2" transform="translate(-9.59233E-14,-58.707)">
				<title>Sheet.1</title>
				<g id="shape2-3" transform="translate(107.594,0)">
					<title>Ellipse</title>
					<path d="M0 624.02 A122.598 95.9843 0 1 1 245.2 624.02 A122.598 95.9843 0 1 1 -0 624.02 Z" class="st1"/>
				</g>
				<g id="shape3-5" transform="translate(579.5,75.6817) rotate(53.5969)">
					<title>Sheet.3</title>
					<path d="M0 720 L200.12 720" class="st2"/>
				</g>
				<g id="shape4-8" transform="translate(812.561,199.018) rotate(80.0723)">
					<title>Sheet.4</title>
					<path d="M0 720 L156.2 720" class="st3"/>
				</g>
				<g id="shape5-11" transform="translate(929.641,276.975) rotate(90)">
					<title>Sheet.5</title>
					<path d="M0 720 L175.75 720" class="st4"/>
				</g>
				<g id="shape6-14" transform="translate(1018.81,382.666) rotate(95.1944)">
					<title>Sheet.6</title>
					<path d="M0 720 L147.16 720" class="st3"/>
				</g>
				<g id="shape7-17" transform="translate(1087.46,469.398) rotate(96.87)">
					<title>Sheet.7</title>
					<path d="M0 720 L118.49 720" class="st2"/>
				</g>
				<g id="shape8-20" transform="translate(164.996,-56.6929)">
					<title>Circle</title>
					<path d="M0 662.95 A57.0472 57.0472 0 1 1 114.09 662.95 A57.0472 57.0472 0 1 1 0 662.95 Z" class="st5"/>
				</g>
				<g id="shape9-22" transform="translate(564.587,49.7505) rotate(51.1155)">
					<title>Sheet.9</title>
					<path d="M0 720 L112.89 720" class="st2"/>
				</g>
			</g>
			<g id="shape10-25" transform="translate(730.067,0)">
				<title>Sheet.10</title>
				<desc>Biom #</desc>
				<rect x="0" y="218.268" width="2321.31" height="501.732" class="st6"/>
				<text x="4" y="649.13" class="st7">Biom #</text>			</g>
		</g>
	</g>
</svg>
